<?xml version="1.0" encoding="UTF-8"?>
<svg width="48px" height="48px" viewBox="0 0 48 48" version="1.1" xmlns="http://www.w3.org/2000/svg" xmlns:xlink="http://www.w3.org/1999/xlink">
    <!-- Generator: Sketch 54 (76480) - https://sketchapp.com -->
    <title>Icon/Outline/close</title>
    <desc>Created with Sketch.</desc>
    <g id="Icon/Outline/close" stroke="none" stroke-width="1" fill="none" fill-rule="evenodd">
        <path d="M24,22.5857864 L35.2928932,11.2928932 C35.6834175,10.9023689 36.3165825,10.9023689 36.7071068,11.2928932 C37.0976311,11.6834175 37.0976311,12.3165825 36.7071068,12.7071068 L25.4142136,24 L36.7071068,35.2928932 C37.0976311,35.6834175 37.0976311,36.3165825 36.7071068,36.7071068 C36.3165825,37.0976311 35.6834175,37.0976311 35.2928932,36.7071068 L24,25.4142136 L12.7071068,36.7071068 C12.3165825,37.0976311 11.6834175,37.0976311 11.2928932,36.7071068 C10.9023689,36.3165825 10.9023689,35.6834175 11.2928932,35.2928932 L22.5857864,24 L11.2928932,12.7071068 C10.9023689,12.3165825 10.9023689,11.6834175 11.2928932,11.2928932 C11.6834175,10.9023689 12.3165825,10.9023689 12.7071068,11.2928932 L24,22.5857864 Z" id="Fill" fill="#FFFFFF" fill-rule="nonzero"></path>
    </g>
</svg>